<?xml version="1.0" encoding="iso-8859-1"?>
<!-- Generator: Adobe Illustrator 13.0.2, SVG Export Plug-In . SVG Version: 6.00 Build 14948)  -->
<!DOCTYPE svg PUBLIC "-//W3C//DTD SVG 1.1//EN" "http://www.w3.org/Graphics/SVG/1.1/DTD/svg11.dtd">
<svg version="1.1" xmlns="http://www.w3.org/2000/svg" xmlns:xlink="http://www.w3.org/1999/xlink" x="0px" y="0px"
	 width="98.586px" height="98.609px" viewBox="0 0 98.586 98.609" enable-background="new 0 0 98.586 98.609" xml:space="preserve">
<g id="to_circ._w_x2F__back._circ." display="none">
	<circle display="inline" fill="#FFFFFF" cx="49.316" cy="49.32" r="44.568"/>
	<path display="inline" fill="#91DC47" d="M49.315,72.884c2.598-0.005,5.094-0.434,7.43-1.211c-0.549-0.502-1.073-1.037-1.55-1.64
		c-3.167-4.039-4.935-9.958-7.73-19.91c-0.443,0.96-0.932,2.038-1.438,3.187c-1.79,4.056-3.771,8.989-4.496,12.15
		c-0.26,1.126-0.421,2.521-0.418,4.067c0,0.612,0.034,1.255,0.085,1.91C43.728,72.369,46.461,72.879,49.315,72.884z"/>
	<path display="inline" fill="#5881D8" d="M25.353,19.813c5.181,0.015,9.254,1.621,11.208,2.72c0.472,0.272,0.919,0.565,1.359,0.866
		c3.487-1.536,7.34-2.395,11.395-2.395c15.64,0.002,28.317,12.676,28.319,28.315h-0.002c0,7.886-3.225,15.015-8.424,20.148
		c1.276,0.143,2.638,0.231,4.027,0.225c4.936,0.002,10.271-1.087,14.271-4.451c2.607-2.197,4.793-5.414,6.005-10.237
		c0.237-1.862,0.373-3.757,0.373-5.684c0-24.614-19.953-44.571-44.568-44.571c-14.926,0-28.129,7.347-36.218,18.613
		C17.307,20.734,21.603,19.78,25.353,19.813z"/>
	<path display="inline" fill="#63B132" d="M73.623,76.563c-1.347,0-2.61-0.072-3.78-0.215c-3.121-0.392-5.697-0.863-7.95-1.658
		c-3.79,1.882-8.059,2.945-12.577,2.945C33.678,77.635,21.001,64.96,21,49.319c0.001-8.487,3.74-16.095,9.654-21.285
		c-1.581-0.381-3.231-0.605-4.917-0.602c-8.308,0.079-17.079,4.676-20.729,17.093c-0.168,1.575-0.26,3.174-0.26,4.794
		c0,24.615,19.955,44.57,44.568,44.57c15.073,0,28.389-7.49,36.455-18.944C81.409,76.032,77.214,76.552,73.623,76.563z"/>
	<path display="inline" fill="#91DC47" d="M44.906,42.911c-1.505-3.778-3.68-8.166-5.62-10.153
		c-0.988-1.038-2.189-1.936-3.515-2.701c-6.05,4.263-10.007,11.293-10.022,19.262c0.015,7.85,3.854,14.789,9.751,19.07
		c1.446-6.025,5.072-11.542,10.508-22.6C45.686,44.902,45.318,43.931,44.906,42.911z"/>
	<path display="inline" fill="#90B4FE" d="M61.467,67.711c0.274,0.137,0.898,0.359,1.767,0.605
		c5.841-4.287,9.636-11.193,9.65-18.998h-0.002C72.86,36.307,62.33,25.779,49.315,25.754c-2.586,0.005-5.072,0.431-7.399,1.203
		c4.785,5.454,7.086,13.249,9.312,21.775c0.001,0.003,0.003,0.006,0.004,0.01c0.004,0.006,0.712,2.368,1.927,5.5
		c1.207,3.128,2.927,7,4.802,9.821C59.191,65.954,60.545,67.312,61.467,67.711z"/>
	<path display="inline" fill="#FFFFFF" d="M93.511,55.003c-1.212,4.823-3.397,8.04-6.005,10.237c-4,3.364-9.335,4.453-14.271,4.451
		c-1.39,0.007-2.751-0.082-4.027-0.225c5.199-5.134,8.424-12.263,8.424-20.148h0.002c-0.002-15.639-12.68-28.313-28.319-28.315
		c-4.055,0-7.908,0.859-11.395,2.395c-0.439-0.301-0.887-0.594-1.359-0.866c-1.954-1.099-6.027-2.705-11.208-2.72
		c-3.75-0.034-8.046,0.92-12.255,3.548c-4.372,6.089-7.251,13.319-8.09,21.164c3.651-12.417,12.421-17.015,20.729-17.093
		c1.685-0.003,3.335,0.22,4.917,0.602C24.739,33.224,21,40.832,21,49.319c0.002,15.642,12.678,28.316,28.315,28.316
		c4.519,0,8.787-1.063,12.577-2.945c2.253,0.795,4.829,1.267,7.95,1.658c1.17,0.143,2.434,0.215,3.78,0.215
		c3.592-0.011,7.786-0.531,12.148-1.617C89.845,69.16,92.574,62.363,93.511,55.003z M25.75,49.319
		c0.015-7.968,3.973-14.999,10.022-19.262c1.326,0.766,2.526,1.663,3.515,2.701c1.94,1.987,4.114,6.375,5.62,10.153
		c0.412,1.02,0.78,1.991,1.103,2.878c-5.436,11.058-9.062,16.575-10.508,22.6C29.604,64.108,25.765,57.168,25.75,49.319z
		 M49.315,72.884c-2.854-0.005-5.587-0.516-8.117-1.446c-0.052-0.655-0.085-1.298-0.085-1.91c-0.002-1.547,0.159-2.941,0.418-4.067
		c0.724-3.161,2.706-8.095,4.496-12.15c0.506-1.148,0.995-2.227,1.438-3.187c2.796,9.952,4.563,15.871,7.73,19.91
		c0.477,0.603,1.001,1.138,1.55,1.64C54.409,72.451,51.913,72.879,49.315,72.884z M63.234,68.317
		c-0.868-0.246-1.492-0.469-1.767-0.605c-0.922-0.399-2.276-1.758-3.507-3.649c-1.875-2.821-3.595-6.693-4.802-9.821
		c-1.215-3.132-1.923-5.493-1.927-5.5c-0.001-0.003-0.003-0.006-0.004-0.01c-2.226-8.526-4.527-16.321-9.312-21.775
		c2.327-0.771,4.812-1.198,7.399-1.203C62.33,25.779,72.86,36.307,72.882,49.319h0.002C72.87,57.124,69.075,64.03,63.234,68.317z"/>
</g>
<g id="w_x2F__circle">
	<path fill="none" d="M49.316,98.639c-27.193,0-49.318-22.124-49.318-49.32C-0.002,22.125,22.123,0,49.316,0
		C76.51,0,98.635,22.125,98.635,49.319C98.635,76.515,76.51,98.639,49.316,98.639L49.316,98.639z"/>
	<path fill="#91DC47" d="M40.25,72.155l0.601,0.222c2.711,0.997,5.559,1.503,8.462,1.507c2.639-0.004,5.245-0.427,7.747-1.26
		l1.619-0.539l-1.261-1.148c-0.569-0.522-1.04-1.02-1.44-1.523c-3.055-3.898-4.775-9.679-7.55-19.559l-0.734-2.611l-1.138,2.462
		c-0.445,0.964-0.937,2.048-1.446,3.204c-1.341,3.043-3.72,8.692-4.554,12.328c-0.292,1.271-0.445,2.756-0.443,4.294
		c0,0.587,0.027,1.237,0.087,1.985L40.25,72.155z"/>
	<path fill="#5881D8" d="M25.164,20.812h0.18c5.706,0.019,9.652,1.99,10.728,2.595c0.441,0.253,0.866,0.531,1.285,0.816l0.458,0.315
		l0.508-0.224c3.486-1.534,7.183-2.311,10.993-2.311c15.062,0.002,27.318,12.257,27.32,27.317
		c-0.002,7.357-2.889,14.261-8.129,19.436l-1.49,1.472l2.081,0.232c1.376,0.155,2.722,0.234,4.002,0.234l0.142-0.002
		c4.265,0,10.303-0.812,14.909-4.687c1.725-1.454,3.135-3.207,4.25-5.261c0.965-3.646,1.484-7.475,1.484-11.425
		c0-24.614-19.953-44.571-44.568-44.571c-15.906,0-29.857,8.341-37.744,20.88C16.756,21.615,21.898,20.812,25.164,20.812z"/>
	<path fill="#63B132" d="M73.62,75.564c-1.295,0-2.526-0.07-3.658-0.209c-3.461-0.436-5.776-0.916-7.736-1.608l-0.4-0.141
		l-0.379,0.188c-3.795,1.884-7.876,2.841-12.131,2.841c-15.059,0-27.314-12.255-27.316-27.315c0-7.857,3.395-15.341,9.314-20.533
		l1.451-1.272l-1.876-0.452c-1.73-0.417-3.449-0.63-5.104-0.63c-8.949,0.083-16.03,4.915-19.975,13.235
		c-0.687,3.109-1.061,6.336-1.061,9.652c0,24.615,19.955,44.57,44.568,44.57c15.622,0,29.357-8.044,37.314-20.209
		C82.008,74.939,77.5,75.551,73.62,75.564z"/>
	<path fill="#90B4FE" d="M61.069,68.627c0.323,0.163,1.031,0.408,1.894,0.65l0.471,0.133l0.392-0.288
		c6.284-4.611,10.046-12.015,10.059-19.801C73.858,35.8,62.838,24.78,49.317,24.755h-0.002h-0.002
		c-2.62,0.004-5.215,0.425-7.712,1.252l-1.432,0.475l0.995,1.134c4.63,5.274,6.858,12.798,9.097,21.368l0.006,0.021l0.027,0.085
		c0.244,0.787,0.92,2.901,1.934,5.515c0.905,2.345,2.746,6.768,4.899,10.011C58.432,66.621,59.906,68.124,61.069,68.627z"/>
	<path fill="#91DC47" d="M46.907,46.231l0.188-0.384l-0.147-0.4c-0.326-0.897-0.699-1.88-1.113-2.91
		c-0.713-1.785-3.239-7.82-5.834-10.479c-0.995-1.049-2.253-2.017-3.729-2.868l-0.553-0.319l-0.522,0.369
		c-6.526,4.599-10.431,12.104-10.446,20.076c0.013,7.839,3.813,15.271,10.162,19.88l1.213,0.881l0.348-1.454
		c0.976-4.062,2.955-7.857,5.95-13.603C43.742,52.493,45.238,49.626,46.907,46.231z"/>
	<path fill="#FFFFFF" d="M49.316,0C22.123,0-0.002,22.125-0.002,49.319c0,27.196,22.125,49.32,49.318,49.32
		c27.194,0,49.319-22.124,49.319-49.32C98.635,22.125,76.51,0,49.316,0z M49.316,4.749c24.615,0,44.568,19.957,44.568,44.571
		c0,1.927-0.136,3.821-0.373,5.684c-1.212,4.823-3.397,8.04-6.005,10.237c-4,3.364-9.335,4.453-14.271,4.451
		c-1.39,0.007-2.751-0.082-4.027-0.225c5.199-5.134,8.424-12.263,8.424-20.148h0.002c-0.002-15.639-12.68-28.313-28.319-28.315
		c-4.055,0-7.908,0.859-11.395,2.395c-0.439-0.301-0.887-0.594-1.359-0.866c-1.954-1.099-6.027-2.705-11.208-2.72
		c-3.751-0.034-8.049,0.917-12.258,3.553C21.183,12.098,34.388,4.749,49.316,4.749z M41.531,65.46
		c0.724-3.161,2.706-8.095,4.496-12.15c0.506-1.148,0.995-2.227,1.438-3.187c2.796,9.952,4.563,15.871,7.73,19.91
		c0.477,0.603,1.001,1.138,1.55,1.64c-2.336,0.777-4.832,1.206-7.43,1.211c-2.854-0.005-5.587-0.516-8.117-1.446
		c-0.052-0.655-0.085-1.298-0.085-1.91C41.11,67.981,41.271,66.586,41.531,65.46z M35.501,68.389
		c-5.897-4.281-9.736-11.221-9.751-19.07c0.015-7.968,3.973-14.999,10.022-19.262c1.326,0.766,2.526,1.663,3.515,2.701
		c1.94,1.987,4.114,6.375,5.62,10.153c0.412,1.02,0.78,1.991,1.103,2.878C40.573,56.847,36.947,62.364,35.501,68.389z
		 M53.159,54.241c-1.215-3.132-1.923-5.493-1.927-5.5c-0.001-0.003-0.003-0.006-0.004-0.01c-2.226-8.526-4.527-16.321-9.312-21.775
		c2.327-0.771,4.812-1.198,7.399-1.203C62.33,25.779,72.86,36.307,72.882,49.319h0.002c-0.015,7.805-3.81,14.711-9.65,18.998
		c-0.868-0.246-1.492-0.469-1.767-0.605c-0.922-0.399-2.276-1.758-3.507-3.649C56.085,61.241,54.366,57.369,53.159,54.241z
		 M49.316,93.89c-24.613,0-44.568-19.955-44.568-44.57c0-1.62,0.092-3.219,0.26-4.794c3.651-12.417,12.421-17.015,20.729-17.093
		c1.685-0.003,3.335,0.22,4.917,0.602C24.739,33.224,21,40.832,21,49.319c0.002,15.642,12.678,28.316,28.315,28.316
		c4.519,0,8.787-1.063,12.577-2.945c2.253,0.795,4.829,1.267,7.95,1.658c1.17,0.143,2.434,0.215,3.78,0.215
		c3.592-0.011,7.786-0.531,12.148-1.618C77.706,86.4,64.39,93.89,49.316,93.89z"/>
</g>
</svg>
